# xmcd
# Track frame offsets:
# 150
# 18902
# 41450
# 56872
# 76632
# 93019
# 106100
# 128199
# 141548
# 159102
#
# Disc length: 2316 seconds
# Revision: 0
# Processed by: cddbd v1.5.2PL0 Copyright (c) Steve Scherf et al.
# Submitted via: VisiTrax 2.11.2.271 - For more info visit www.synapsa.com
#
DISCID=6f090a0a
DTITLE=Gina Sicilia - Can't Control Myself
DYEAR=2011
DGENRE=
TTITLE0=Addicted
TTITLE1=Crazy 'Bout You Baby
TTITLE2=Members Only
TTITLE3=Before the Night Is Through
TTITLE4=Place In the Sun
TTITLE5=Can't Control Myself
TTITLE6=As Long As You're Here
TTITLE7=Wish the Clock Would Stop
TTITLE8=Gimme a Simple Song
TTITLE9=Once In a While
EXTD=
EXTT0=
EXTT1=
EXTT2=
EXTT3=
EXTT4=
EXTT5=
EXTT6=
EXTT7=
EXTT8=
EXTT9=
PLAYORDER=
